<?xml version="1.0" encoding="UTF-8" standalone="no"?><!DOCTYPE svg PUBLIC "-//W3C//DTD SVG 1.1//EN" "http://www.w3.org/Graphics/SVG/1.1/DTD/svg11.dtd"><svg width="100%" height="100%" viewBox="0 0 484 484" version="1.1" xmlns="http://www.w3.org/2000/svg" xmlns:xlink="http://www.w3.org/1999/xlink" xml:space="preserve" xmlns:serif="http://www.serif.com/" style="fill-rule:evenodd;clip-rule:evenodd;stroke-linejoin:round;stroke-miterlimit:1.41421;"><g><path d="M424.3,57.75l-365.2,0c-32.6,0 -59.1,26.5 -59.1,59.1l0,249.6c0,32.6 26.5,59.1 59.1,59.1l365.1,0c32.6,0 59.1,-26.5 59.1,-59.1l0,-249.5c0.1,-32.6 -26.4,-59.2 -59,-59.2Zm32.1,308.7c0,17.7 -14.4,32.1 -32.1,32.1l-365.2,0c-17.7,0 -32.1,-14.4 -32.1,-32.1l0,-249.5c0,-17.7 14.4,-32.1 32.1,-32.1l365.1,0c17.7,0 32.1,14.4 32.1,32.1l0,249.5l0.1,0Z" style="fill:#9d7d4f;fill-rule:nonzero;"/><path d="M304.8,238.55l118.2,-106c5.5,-5 6,-13.5 1,-19.1c-5,-5.5 -13.5,-6 -19.1,-1l-163,146.3l-31.8,-28.4c-0.1,-0.1 -0.2,-0.2 -0.2,-0.3c-0.7,-0.7 -1.4,-1.3 -2.2,-1.9l-129.4,-115.8c-5.6,-5 -14.1,-4.5 -19.1,1.1c-5,5.6 -4.5,14.1 1.1,19.1l119.6,106.9l-119.1,111.5c-5.4,5.1 -5.7,13.6 -0.6,19.1c2.7,2.8 6.3,4.3 9.9,4.3c3.3,0 6.6,-1.2 9.2,-3.6l120.9,-113.1l32.8,29.3c2.6,2.3 5.8,3.4 9,3.4c3.2,0 6.5,-1.2 9,-3.5l33.7,-30.2l120.2,114.2c2.6,2.5 6,3.7 9.3,3.7c3.6,0 7.1,-1.4 9.8,-4.2c5.1,-5.4 4.9,-14 -0.5,-19.1l-118.7,-112.7Z" style="fill:#9d7d4f;fill-rule:nonzero;"/></g></svg>