<?xml version="1.0" encoding="UTF-8" standalone="no"?><!DOCTYPE svg PUBLIC "-//W3C//DTD SVG 1.1//EN" "http://www.w3.org/Graphics/SVG/1.1/DTD/svg11.dtd"><svg width="100%" height="100%" viewBox="0 0 473 473" version="1.1" xmlns="http://www.w3.org/2000/svg" xmlns:xlink="http://www.w3.org/1999/xlink" xml:space="preserve" xmlns:serif="http://www.serif.com/" style="fill-rule:evenodd;clip-rule:evenodd;stroke-linejoin:round;stroke-miterlimit:1.41421;"><g><path d="M358.75,0l-244.689,0c-16.506,0 -29.933,13.428 -29.933,29.934l0,412.944c0,16.505 13.428,29.934 29.934,29.934l244.688,0c16.506,0 29.934,-13.428 29.934,-29.934l0,-412.944c-0.001,-16.506 -13.428,-29.934 -29.934,-29.934Zm-259.622,75.236l274.556,0l0,312.687l-274.556,0l0,-312.687Zm14.933,-60.236l244.689,0c8.234,0 14.934,6.699 14.934,14.934l0,35.302l-274.556,0l0,-35.302c0,-8.235 6.699,-14.934 14.933,-14.934Zm244.689,442.811l-244.689,0c-8.234,0 -14.934,-6.699 -14.934,-14.934l0,-44.955l274.556,0l0,44.955c0,8.235 -6.699,14.934 -14.933,14.934Z" style="fill:#fff;fill-rule:nonzero;"/><path d="M236.406,404.552c-13.545,0 -24.564,11.02 -24.564,24.565c0,13.545 11.02,24.564 24.564,24.564c13.544,0 24.564,-11.02 24.564,-24.564c0,-13.544 -11.019,-24.565 -24.564,-24.565Zm0,39.129c-8.031,0 -14.564,-6.534 -14.564,-14.564c0,-8.031 6.533,-14.565 14.564,-14.565c8.031,0 14.564,6.534 14.564,14.565c0,8.03 -6.533,14.564 -14.564,14.564Z" style="fill:#fff;fill-rule:nonzero;"/><path d="M202.406,47.645l68,0c2.762,0 5,-2.239 5,-5c0,-2.761 -2.238,-5 -5,-5l-68,0c-2.762,0 -5,2.239 -5,5c0,2.761 2.238,5 5,5Z" style="fill:#fff;fill-rule:nonzero;"/><path d="M184.409,47.645c1.31,0 2.6,-0.53 3.53,-1.46c0.93,-0.94 1.47,-2.22 1.47,-3.54c0,-1.32 -0.54,-2.6 -1.47,-3.54c-0.931,-0.93 -2.221,-1.46 -3.53,-1.46c-1.32,0 -2.601,0.53 -3.54,1.46c-0.93,0.93 -1.46,2.22 -1.46,3.54c0,1.32 0.53,2.6 1.46,3.54c0.93,0.93 2.22,1.46 3.54,1.46Z" style="fill:#fff;fill-rule:nonzero;"/></g></svg>