<?xml version="1.0" encoding="UTF-8" standalone="no"?><!DOCTYPE svg PUBLIC "-//W3C//DTD SVG 1.1//EN" "http://www.w3.org/Graphics/SVG/1.1/DTD/svg11.dtd"><svg width="100%" height="100%" viewBox="0 0 512 512" version="1.1" xmlns="http://www.w3.org/2000/svg" xmlns:xlink="http://www.w3.org/1999/xlink" xml:space="preserve" xmlns:serif="http://www.serif.com/" style="fill-rule:evenodd;clip-rule:evenodd;stroke-linejoin:round;stroke-miterlimit:1.41421;"><g><path d="M93.867,426.667l409.6,0c5.12,0 8.533,-3.413 8.533,-8.533l0,-153.6l0,-153.6l0,-102.401c0,-5.12 -3.413,-8.533 -8.533,-8.533l-162.134,0l-93.867,0l-153.6,0c-5.12,0 -8.533,3.413 -8.533,8.533l0,409.6c0,5.12 3.414,8.534 8.534,8.534Zm8.533,-136.534l85.333,0c-4.267,45.227 -40.107,81.067 -85.333,85.333l0,-85.333Zm0,-273.066l136.533,0l0,51.2l-8.533,0c-5.12,0 -8.533,3.413 -8.533,8.533c0,5.12 3.413,8.533 8.533,8.533l34.133,0c5.12,0 8.533,-3.413 8.533,-8.533c0,-5.12 -3.413,-8.533 -8.533,-8.533l-8.533,0l0,-51.2l76.8,0l0,93.867c0,5.12 3.413,8.533 8.533,8.533l34.133,0l0,8.533c0,5.12 3.413,8.533 8.533,8.533c5.12,0 8.533,-3.413 8.533,-8.533l0,-34.133c0,-5.12 -3.413,-8.533 -8.533,-8.533c-5.12,0 -8.533,3.413 -8.533,8.533l0,8.533l-25.6,0l0,-85.333l145.067,0l0,85.333l-34.133,0l0,-8.533c0,-5.12 -3.413,-8.533 -8.533,-8.533c-5.12,0 -8.533,3.413 -8.533,8.533l0,34.133c0,5.12 3.413,8.533 8.533,8.533c5.12,0 8.533,-3.413 8.533,-8.533l0,-8.533l34.133,0l0,136.533l-51.2,0l0,-8.533c0,-5.12 -3.413,-8.533 -8.533,-8.533c-5.12,0 -8.533,3.413 -8.533,8.533l0,34.133c0,5.12 3.413,8.533 8.533,8.533c5.12,0 8.533,-3.413 8.533,-8.533l0,-8.533l51.2,0l0,136.533l-187.733,0l0,-136.533l51.2,0l0,8.533c0,5.12 3.413,8.533 8.533,8.533c5.12,0 8.533,-3.413 8.533,-8.533l0,-34.133c0,-5.12 -3.413,-8.533 -8.533,-8.533c-5.12,0 -8.533,3.413 -8.533,8.533l0,8.533l-59.733,0c-5.12,0 -8.533,3.413 -8.533,8.533l0,145.067l-187.734,0l0,-17.388c57.425,-4.332 102.4,-52.044 102.4,-110.612c0,-5.12 -3.413,-8.533 -8.533,-8.533l-93.867,0l0,-51.2l145.067,0c5.12,0 8.533,-3.413 8.533,-8.533l0,-59.734l8.533,0c5.12,0 8.533,-3.413 8.533,-8.533c0,-5.12 -3.413,-8.533 -8.533,-8.533l-34.133,0c-5.12,0 -8.533,3.413 -8.533,8.533c0,5.12 3.413,8.533 8.533,8.533l8.533,0l0,51.2l-136.533,0l0,-187.733Z" style="fill:#9d7d4f;fill-rule:nonzero;"/><path d="M65.707,424.107c3.413,-3.413 3.413,-8.533 0,-11.947c-3.413,-3.413 -8.533,-3.413 -11.947,0l-11.093,11.093l0,-394.24l11.093,11.094c1.707,1.707 3.413,2.56 5.973,2.56c2.56,0 4.267,-0.853 5.973,-2.56c3.413,-3.413 3.413,-8.533 0,-11.947l-24.139,-24.14c-1.395,-2.509 -4.035,-4.02 -7.434,-4.02c-3.399,0 -6.038,1.511 -7.434,4.02l-24.139,24.14c-3.413,3.413 -3.413,8.533 0,11.947c3.413,3.414 8.533,3.413 11.947,0l11.093,-11.094l0,394.24l-11.093,-11.093c-3.413,-3.413 -8.533,-3.413 -11.947,0c-3.413,3.413 -3.413,8.533 0,11.947l24.14,24.14c1.395,2.509 4.034,4.02 7.434,4.02c3.399,0 6.038,-1.511 7.433,-4.02l24.14,-24.14Z" style="fill:#9d7d4f;fill-rule:nonzero;"/><path d="M512,477.874c0,-0.005 0,-0.01 0,-0.016c-0.002,-3.395 -1.512,-6.031 -4.02,-7.426l-24.14,-24.14c-3.413,-3.413 -8.533,-3.413 -11.947,0c-3.413,3.413 -3.413,8.533 0,11.947l11.093,11.093l-394.239,0l11.093,-11.092c3.413,-3.413 3.413,-8.533 0,-11.947c-3.413,-3.413 -8.533,-3.413 -11.947,0l-24.14,24.14c-2.509,1.395 -4.02,4.034 -4.02,7.434c0,3.4 1.511,6.038 4.02,7.434l24.14,24.14c1.707,1.707 3.413,2.56 5.973,2.56c2.56,0 4.267,-0.853 5.973,-2.56c3.413,-3.413 3.413,-8.533 0,-11.947l-11.092,-11.094l394.24,0l-11.093,11.093c-3.413,3.413 -3.413,8.533 0,11.947c1.707,1.707 3.413,2.56 5.973,2.56c2.56,0 4.267,-0.853 5.973,-2.56l24.14,-24.14c2.507,-1.394 4.017,-4.03 4.02,-7.426Z" style="fill:#9d7d4f;fill-rule:nonzero;"/></g></svg>