<?xml version="1.0" encoding="UTF-8" standalone="no"?><!DOCTYPE svg PUBLIC "-//W3C//DTD SVG 1.1//EN" "http://www.w3.org/Graphics/SVG/1.1/DTD/svg11.dtd"><svg width="100%" height="100%" viewBox="0 0 476 476" version="1.1" xmlns="http://www.w3.org/2000/svg" xmlns:xlink="http://www.w3.org/1999/xlink" xml:space="preserve" xmlns:serif="http://www.serif.com/" style="fill-rule:evenodd;clip-rule:evenodd;stroke-linejoin:round;stroke-miterlimit:1.41421;"><g><path d="M164.454,36.547l-109.636,0c-15.229,0 -28.171,5.33 -38.832,15.987c-10.656,10.659 -15.986,23.601 -15.986,38.831l0,109.632c0,15.229 5.327,28.169 15.986,38.826c10.66,10.656 23.606,15.988 38.832,15.988l63.953,0c7.611,0 14.084,2.666 19.414,7.994c5.33,5.325 7.994,11.8 7.994,19.417l0,9.131c0,20.177 -7.139,37.397 -21.413,51.675c-14.275,14.271 -31.499,21.409 -51.678,21.409l-18.27,0c-4.952,0 -9.233,1.813 -12.851,5.427c-3.615,3.614 -5.424,7.898 -5.424,12.847l0,36.549c0,4.941 1.809,9.233 5.424,12.848c3.621,3.613 7.898,5.427 12.851,5.427l18.271,0c19.797,0 38.688,-3.86 56.676,-11.566c17.987,-7.707 33.546,-18.131 46.68,-31.265c13.131,-13.135 23.553,-28.691 31.261,-46.679c7.707,-17.987 11.562,-36.877 11.562,-56.671l0,-200.993c0,-15.23 -5.33,-28.171 -15.987,-38.828c-10.657,-10.657 -23.602,-15.986 -38.827,-15.986Z" style="fill:#9d7d4f;fill-opacity:0.537255;fill-rule:nonzero;"/><path d="M459.089,52.534c-10.656,-10.657 -23.599,-15.987 -38.828,-15.987l-109.632,0c-15.229,0 -28.171,5.33 -38.828,15.987c-10.656,10.66 -15.984,23.601 -15.984,38.831l0,109.632c0,15.229 5.328,28.169 15.984,38.826c10.657,10.656 23.6,15.988 38.828,15.988l63.953,0c7.611,0 14.089,2.666 19.418,7.994c5.324,5.328 7.994,11.8 7.994,19.417l0,9.131c0,20.177 -7.139,37.397 -21.416,51.675c-14.274,14.271 -31.494,21.409 -51.675,21.409l-18.274,0c-4.948,0 -9.233,1.813 -12.847,5.427c-3.617,3.614 -5.428,7.898 -5.428,12.847l0,36.549c0,4.941 1.811,9.233 5.428,12.848c3.613,3.613 7.898,5.427 12.847,5.427l18.274,0c19.794,0 38.684,-3.86 56.674,-11.566c17.984,-7.707 33.541,-18.131 46.676,-31.265c13.134,-13.135 23.562,-28.695 31.265,-46.679c7.706,-17.983 11.563,-36.877 11.563,-56.671l0,-200.993c-0.003,-15.23 -5.328,-28.171 -15.992,-38.827Z" style="fill:#9d7d4f;fill-opacity:0.537255;fill-rule:nonzero;"/></g></svg>