<?xml version="1.0" encoding="UTF-8" standalone="no"?><!DOCTYPE svg PUBLIC "-//W3C//DTD SVG 1.1//EN" "http://www.w3.org/Graphics/SVG/1.1/DTD/svg11.dtd"><svg width="100%" height="100%" viewBox="0 0 33 33" version="1.1" xmlns="http://www.w3.org/2000/svg" xmlns:xlink="http://www.w3.org/1999/xlink" xml:space="preserve" xmlns:serif="http://www.serif.com/" style="fill-rule:evenodd;clip-rule:evenodd;stroke-linejoin:round;stroke-miterlimit:1.41421;"><g><path d="M24.192,24.505l-15.383,0c-0.276,0 -0.5,-0.224 -0.5,-0.5l0,-8.122c0,-2.27 -1.847,-4.115 -4.116,-4.115c-1.761,0 -3.193,1.431 -3.193,3.192c0,1.354 1.101,2.454 2.454,2.454c1.027,0 1.863,-0.836 1.863,-1.863c0,-0.767 -0.624,-1.391 -1.391,-1.391c-0.276,0 -0.5,-0.224 -0.5,-0.5c0,-0.276 0.224,-0.5 0.5,-0.5c1.318,0 2.391,1.072 2.391,2.391c0,1.579 -1.284,2.863 -2.863,2.863c-1.904,0 -3.454,-1.55 -3.454,-3.454c0,-2.312 1.881,-4.192 4.192,-4.192c2.821,0 5.116,2.295 5.116,5.115l0,7.622l14.384,0l0,-7.622c0,-2.82 2.295,-5.115 5.115,-5.115c2.312,0 4.192,1.881 4.192,4.192c0,1.904 -1.55,3.454 -3.454,3.454c-1.578,0 -2.862,-1.284 -2.862,-2.863c0,-1.318 1.072,-2.391 2.39,-2.391c0.276,0 0.5,0.224 0.5,0.5c0,0.276 -0.224,0.5 -0.5,0.5c-0.767,0 -1.39,0.624 -1.39,1.391c0,1.027 0.835,1.863 1.862,1.863c1.354,0 2.454,-1.101 2.454,-2.454c0,-1.761 -1.432,-3.192 -3.192,-3.192c-2.27,0 -4.115,1.846 -4.115,4.115l0,8.122c0,0.276 -0.223,0.5 -0.5,0.5Z" style="fill:#9d7d4f;fill-rule:nonzero;"/><path d="M28.091,29.304l-23.073,0c-1.138,0 -2.063,-0.926 -2.063,-2.063l0,-9.326c0,-0.276 0.224,-0.5 0.5,-0.5c0.276,0 0.5,0.224 0.5,0.5l0,9.326c0,0.586 0.478,1.063 1.063,1.063l23.073,0c0.586,0 1.063,-0.478 1.063,-1.063l0,-9.326c0,-0.276 0.224,-0.5 0.5,-0.5c0.276,0 0.5,0.224 0.5,0.5l0,9.326c0,1.137 -0.925,2.063 -2.063,2.063Z" style="fill:#9d7d4f;fill-rule:nonzero;"/><path d="M24.192,20.271l-15.383,0c-0.276,0 -0.5,-0.224 -0.5,-0.5c0,-0.276 0.224,-0.5 0.5,-0.5l15.384,0c0.276,0 0.5,0.224 0.5,0.5c0,0.276 -0.224,0.5 -0.501,0.5Z" style="fill:#9d7d4f;fill-rule:nonzero;"/><path d="M8.809,30.927c-0.276,0 -0.5,-0.224 -0.5,-0.5l0,-1.227c0,-0.276 0.224,-0.5 0.5,-0.5c0.276,0 0.5,0.224 0.5,0.5l0,1.227c0,0.276 -0.224,0.5 -0.5,0.5Z" style="fill:#9d7d4f;fill-rule:nonzero;"/><path d="M24.192,30.927c-0.276,0 -0.5,-0.224 -0.5,-0.5l0,-1.227c0,-0.276 0.224,-0.5 0.5,-0.5c0.276,0 0.5,0.224 0.5,0.5l0,1.227c0,0.276 -0.223,0.5 -0.5,0.5Z" style="fill:#9d7d4f;fill-rule:nonzero;"/><path d="M27.563,11.768c-0.276,0 -0.5,-0.224 -0.5,-0.5l0,-3.259c0,-2.722 -2.214,-4.936 -4.936,-4.936l-11.147,0c-2.722,0 -4.936,2.214 -4.936,4.936l0,3.259c0,0.276 -0.224,0.5 -0.5,0.5c-0.276,0 -0.5,-0.224 -0.5,-0.5l0,-3.259c0,-3.272 2.663,-5.936 5.936,-5.936l11.147,0c3.272,0 5.936,2.663 5.936,5.936l0,3.259c0,0.276 -0.223,0.5 -0.5,0.5Z" style="fill:#9d7d4f;fill-rule:nonzero;"/></g></svg>