<?xml version="1.0" encoding="UTF-8" standalone="no"?><!DOCTYPE svg PUBLIC "-//W3C//DTD SVG 1.1//EN" "http://www.w3.org/Graphics/SVG/1.1/DTD/svg11.dtd"><svg width="100%" height="100%" viewBox="0 0 98 98" version="1.1" xmlns="http://www.w3.org/2000/svg" xmlns:xlink="http://www.w3.org/1999/xlink" xml:space="preserve" xmlns:serif="http://www.serif.com/" style="fill-rule:evenodd;clip-rule:evenodd;stroke-linejoin:round;stroke-miterlimit:1.41421;"><g><path d="M48.58,0c-26.787,0 -48.58,21.793 -48.58,48.58c0,26.787 21.793,48.58 48.58,48.58c26.787,0 48.58,-21.793 48.58,-48.58c0,-26.787 -21.793,-48.58 -48.58,-48.58Zm0,86.823c-21.087,0 -38.244,-17.155 -38.244,-38.243c0,-21.088 17.157,-38.243 38.244,-38.243c21.087,0 38.244,17.155 38.244,38.243c0,21.088 -17.157,38.243 -38.244,38.243Z" style="fill:#fff;fill-rule:nonzero;"/><path d="M73.898,47.08l-21.832,0l0,-26.25c0,-2.209 -1.791,-4 -4,-4c-2.209,0 -4,1.791 -4,4l0,30.25c0,2.209 1.791,4 4,4l25.832,0c2.209,0 4,-1.791 4,-4c0,-2.209 -1.791,-4 -4,-4Z" style="fill:#fff;fill-rule:nonzero;"/></g></svg>