<?xml version="1.0" encoding="UTF-8" standalone="no"?><!DOCTYPE svg PUBLIC "-//W3C//DTD SVG 1.1//EN" "http://www.w3.org/Graphics/SVG/1.1/DTD/svg11.dtd"><svg width="100%" height="100%" viewBox="0 0 374 374" version="1.1" xmlns="http://www.w3.org/2000/svg" xmlns:xlink="http://www.w3.org/1999/xlink" xml:space="preserve" xmlns:serif="http://www.serif.com/" style="fill-rule:evenodd;clip-rule:evenodd;stroke-linejoin:round;stroke-miterlimit:1.41421;"><path d="M328.624,75.725l-140.566,-74.901c-2.085,-1.113 -4.584,-1.097 -6.654,0.039l-136.676,74.901c-2.242,1.23 -3.632,3.581 -3.632,6.139l0,97.839c0.082,80.426 47.733,153.187 121.423,185.408l18.971,8.267c1.773,0.774 3.792,0.778 5.569,0.008l21.376,-9.232c75.057,-31.522 123.887,-104.985 123.895,-186.392l0,-95.898c0,-2.586 -1.426,-4.964 -3.706,-6.178Zm-10.29,102.076c-0.016,75.795 -45.491,144.186 -115.378,173.517l-0.046,0.024l-18.616,8.036l-16.175,-7.056c-68.594,-29.992 -112.953,-97.715 -113.031,-172.58l0,-93.696l129.725,-71.097l133.521,71.148l0,91.704Z" style="fill:#9d7d4f;fill-rule:nonzero;"/><path d="M133.183,175.204c-2.511,-2.94 -6.927,-3.288 -9.868,-0.777c-2.941,2.507 -3.288,6.928 -0.777,9.864l36.966,43.289c2.468,2.89 6.791,3.284 9.735,0.886l86.093,-70.042c2.999,-2.437 3.452,-6.846 1.012,-9.845c-2.437,-2.995 -6.846,-3.452 -9.845,-1.012l-80.79,65.724l-32.526,-38.087Z" style="fill:#9d7d4f;fill-rule:nonzero;"/></svg>