<?xml version="1.0" encoding="UTF-8" standalone="no"?><!DOCTYPE svg PUBLIC "-//W3C//DTD SVG 1.1//EN" "http://www.w3.org/Graphics/SVG/1.1/DTD/svg11.dtd"><svg width="100%" height="100%" viewBox="0 0 97 97" version="1.1" xmlns="http://www.w3.org/2000/svg" xmlns:xlink="http://www.w3.org/1999/xlink" xml:space="preserve" xmlns:serif="http://www.serif.com/" style="fill-rule:evenodd;clip-rule:evenodd;stroke-linejoin:round;stroke-miterlimit:1.41421;"><path d="M72.089,0.02l-12.465,-0.02c-14.004,0 -23.054,9.285 -23.054,23.656l0,10.907l-12.533,0c-1.083,0 -1.96,0.878 -1.96,1.961l0,15.803c0,1.083 0.878,1.96 1.96,1.96l12.533,0l0,39.876c0,1.083 0.877,1.96 1.96,1.96l16.352,0c1.083,0 1.96,-0.878 1.96,-1.96l0,-39.876l14.654,0c1.083,0 1.96,-0.877 1.96,-1.96l0.006,-15.803c0,-0.52 -0.207,-1.018 -0.574,-1.386c-0.367,-0.368 -0.867,-0.575 -1.387,-0.575l-14.659,0l0,-9.246c0,-4.444 1.059,-6.7 6.848,-6.7l8.397,-0.003c1.082,0 1.959,-0.878 1.959,-1.96l0,-14.674c0,-1.081 -0.876,-1.958 -1.957,-1.96Z" style="fill:#878787;fill-rule:nonzero;"/></svg>